<mxfile host="app.diagrams.net" agent="Mozilla/5.0 (Windows NT 10.0; Win64; x64) AppleWebKit/537.36 (KHTML, like Gecko) Chrome/140.0.0.0 Safari/537.36" version="28.2.3" pages="2">
  <diagram name="Página-1" id="I1A9_rwOuhHKdsbsZrDO">
    <mxGraphModel dx="2256" dy="862" grid="1" gridSize="10" guides="1" tooltips="1" connect="1" arrows="1" fold="1" page="1" pageScale="1" pageWidth="827" pageHeight="1169" math="0" shadow="0">
      <root>
        <mxCell id="0" />
        <mxCell id="1" parent="0" />
        <mxCell id="oLSMftNWuv7o7DR6i7uo-1" value="Jogo (funcionamento)" style="swimlane;horizontal=0;whiteSpace=wrap;html=1;fillColor=#dae8fc;strokeColor=#6c8ebf;" vertex="1" parent="1">
          <mxGeometry x="-380" y="460" width="1850" height="795" as="geometry" />
        </mxCell>
        <mxCell id="oLSMftNWuv7o7DR6i7uo-2" value="" style="edgeStyle=orthogonalEdgeStyle;rounded=0;orthogonalLoop=1;jettySize=auto;html=1;" edge="1" parent="oLSMftNWuv7o7DR6i7uo-1" source="oLSMftNWuv7o7DR6i7uo-3">
          <mxGeometry relative="1" as="geometry">
            <mxPoint x="110.00000000000023" y="34.545454545454504" as="targetPoint" />
          </mxGeometry>
        </mxCell>
        <mxCell id="oLSMftNWuv7o7DR6i7uo-3" value="" style="ellipse;whiteSpace=wrap;html=1;aspect=fixed;fillColor=#d5e8d4;strokeColor=#82b366;" vertex="1" parent="oLSMftNWuv7o7DR6i7uo-1">
          <mxGeometry x="30" y="15" width="40" height="40" as="geometry" />
        </mxCell>
        <mxCell id="oLSMftNWuv7o7DR6i7uo-4" value="" style="edgeStyle=orthogonalEdgeStyle;rounded=0;orthogonalLoop=1;jettySize=auto;html=1;" edge="1" parent="oLSMftNWuv7o7DR6i7uo-1">
          <mxGeometry relative="1" as="geometry">
            <mxPoint x="200" y="34.545454545454504" as="sourcePoint" />
            <mxPoint x="480" y="35.09090909090901" as="targetPoint" />
          </mxGeometry>
        </mxCell>
        <mxCell id="oLSMftNWuv7o7DR6i7uo-7" value="" style="edgeStyle=orthogonalEdgeStyle;rounded=0;orthogonalLoop=1;jettySize=auto;html=1;" edge="1" parent="oLSMftNWuv7o7DR6i7uo-1" target="oLSMftNWuv7o7DR6i7uo-10">
          <mxGeometry relative="1" as="geometry">
            <mxPoint x="575" y="35.09090909090901" as="sourcePoint" />
          </mxGeometry>
        </mxCell>
        <mxCell id="oLSMftNWuv7o7DR6i7uo-9" value="" style="edgeStyle=orthogonalEdgeStyle;rounded=0;orthogonalLoop=1;jettySize=auto;html=1;entryX=0.5;entryY=0;entryDx=0;entryDy=0;entryPerimeter=0;" edge="1" parent="oLSMftNWuv7o7DR6i7uo-1" source="oLSMftNWuv7o7DR6i7uo-10" target="oLSMftNWuv7o7DR6i7uo-16">
          <mxGeometry relative="1" as="geometry">
            <mxPoint x="373.7449999999999" y="80" as="targetPoint" />
          </mxGeometry>
        </mxCell>
        <mxCell id="oLSMftNWuv7o7DR6i7uo-10" value="Sair" style="whiteSpace=wrap;html=1;fillColor=#dae8fc;strokeColor=#6c8ebf;" vertex="1" parent="oLSMftNWuv7o7DR6i7uo-1">
          <mxGeometry x="870" y="17.5" width="47.5" height="35" as="geometry" />
        </mxCell>
        <mxCell id="oLSMftNWuv7o7DR6i7uo-11" value="" style="edgeStyle=orthogonalEdgeStyle;rounded=0;orthogonalLoop=1;jettySize=auto;html=1;" edge="1" parent="oLSMftNWuv7o7DR6i7uo-1" target="oLSMftNWuv7o7DR6i7uo-13">
          <mxGeometry relative="1" as="geometry">
            <mxPoint x="155.09090909090878" y="139.5" as="sourcePoint" />
          </mxGeometry>
        </mxCell>
        <mxCell id="oLSMftNWuv7o7DR6i7uo-13" value="" style="rhombus;whiteSpace=wrap;html=1;fillColor=#fff2cc;strokeColor=#d6b656;" vertex="1" parent="oLSMftNWuv7o7DR6i7uo-1">
          <mxGeometry x="117.5" y="170" width="75" height="70" as="geometry" />
        </mxCell>
        <mxCell id="oLSMftNWuv7o7DR6i7uo-14" value="" style="edgeStyle=orthogonalEdgeStyle;rounded=0;orthogonalLoop=1;jettySize=auto;html=1;entryX=0.5;entryY=0;entryDx=0;entryDy=0;entryPerimeter=0;" edge="1" parent="oLSMftNWuv7o7DR6i7uo-1" source="oLSMftNWuv7o7DR6i7uo-15" target="oLSMftNWuv7o7DR6i7uo-32">
          <mxGeometry relative="1" as="geometry">
            <mxPoint x="155.00000000000023" y="300" as="targetPoint" />
            <Array as="points">
              <mxPoint x="160" y="280" />
              <mxPoint x="108" y="280" />
            </Array>
          </mxGeometry>
        </mxCell>
        <mxCell id="oLSMftNWuv7o7DR6i7uo-15" value="Qual fase você está?" style="text;html=1;align=center;verticalAlign=middle;whiteSpace=wrap;rounded=0;" vertex="1" parent="oLSMftNWuv7o7DR6i7uo-1">
          <mxGeometry x="97" y="230" width="116" height="30" as="geometry" />
        </mxCell>
        <mxCell id="oLSMftNWuv7o7DR6i7uo-16" value="fim" style="points=[[0.145,0.145,0],[0.5,0,0],[0.855,0.145,0],[1,0.5,0],[0.855,0.855,0],[0.5,1,0],[0.145,0.855,0],[0,0.5,0]];shape=mxgraph.bpmn.event;html=1;verticalLabelPosition=bottom;labelBackgroundColor=#ffffff;verticalAlign=top;align=center;perimeter=ellipsePerimeter;outlineConnect=0;aspect=fixed;outline=throwing;symbol=general;fillColor=#f8cecc;strokeColor=#b85450;" vertex="1" parent="oLSMftNWuv7o7DR6i7uo-1">
          <mxGeometry x="1040" y="57" width="50" height="50" as="geometry" />
        </mxCell>
        <mxCell id="oLSMftNWuv7o7DR6i7uo-19" value="" style="edgeStyle=orthogonalEdgeStyle;rounded=0;orthogonalLoop=1;jettySize=auto;html=1;" edge="1" parent="oLSMftNWuv7o7DR6i7uo-1" source="oLSMftNWuv7o7DR6i7uo-21" target="oLSMftNWuv7o7DR6i7uo-22">
          <mxGeometry relative="1" as="geometry" />
        </mxCell>
        <mxCell id="oLSMftNWuv7o7DR6i7uo-20" value="" style="edgeStyle=orthogonalEdgeStyle;rounded=0;orthogonalLoop=1;jettySize=auto;html=1;exitX=0;exitY=0.5;exitDx=0;exitDy=0;" edge="1" parent="oLSMftNWuv7o7DR6i7uo-1" source="oLSMftNWuv7o7DR6i7uo-21" target="oLSMftNWuv7o7DR6i7uo-24">
          <mxGeometry relative="1" as="geometry" />
        </mxCell>
        <mxCell id="oLSMftNWuv7o7DR6i7uo-21" value="" style="rhombus;whiteSpace=wrap;html=1;fillColor=#fff2cc;strokeColor=#d6b656;" vertex="1" parent="oLSMftNWuv7o7DR6i7uo-1">
          <mxGeometry x="117.5" y="410" width="75" height="70" as="geometry" />
        </mxCell>
        <mxCell id="oLSMftNWuv7o7DR6i7uo-22" value="Faça a primeira fase" style="whiteSpace=wrap;html=1;fillColor=#dae8fc;strokeColor=#6c8ebf;" vertex="1" parent="oLSMftNWuv7o7DR6i7uo-1">
          <mxGeometry x="250" y="432.5" width="120" height="25" as="geometry" />
        </mxCell>
        <mxCell id="oLSMftNWuv7o7DR6i7uo-23" value="Não" style="text;html=1;align=center;verticalAlign=middle;whiteSpace=wrap;rounded=0;" vertex="1" parent="oLSMftNWuv7o7DR6i7uo-1">
          <mxGeometry x="183" y="420" width="60" height="30" as="geometry" />
        </mxCell>
        <mxCell id="oLSMftNWuv7o7DR6i7uo-24" value="" style="rhombus;whiteSpace=wrap;html=1;fillColor=#fff2cc;strokeColor=#d6b656;" vertex="1" parent="oLSMftNWuv7o7DR6i7uo-1">
          <mxGeometry x="53" y="490" width="80" height="80" as="geometry" />
        </mxCell>
        <mxCell id="oLSMftNWuv7o7DR6i7uo-25" value="" style="edgeStyle=orthogonalEdgeStyle;rounded=0;orthogonalLoop=1;jettySize=auto;html=1;" edge="1" parent="oLSMftNWuv7o7DR6i7uo-1" source="oLSMftNWuv7o7DR6i7uo-26" target="oLSMftNWuv7o7DR6i7uo-27">
          <mxGeometry relative="1" as="geometry" />
        </mxCell>
        <mxCell id="oLSMftNWuv7o7DR6i7uo-26" value="Atingiu a pontuação necessaria para proseguir de nivel?" style="text;html=1;align=center;verticalAlign=middle;whiteSpace=wrap;rounded=0;" vertex="1" parent="oLSMftNWuv7o7DR6i7uo-1">
          <mxGeometry x="40" y="560" width="117" height="70" as="geometry" />
        </mxCell>
        <mxCell id="oLSMftNWuv7o7DR6i7uo-27" value="Passe para o próximo nível" style="whiteSpace=wrap;html=1;fillColor=#dae8fc;strokeColor=#6c8ebf;" vertex="1" parent="oLSMftNWuv7o7DR6i7uo-1">
          <mxGeometry x="38.5" y="669" width="121.5" height="41" as="geometry" />
        </mxCell>
        <mxCell id="oLSMftNWuv7o7DR6i7uo-29" value="Configurações" style="points=[[0.25,0,0],[0.5,0,0],[0.75,0,0],[1,0.25,0],[1,0.5,0],[1,0.75,0],[0.75,1,0],[0.5,1,0],[0.25,1,0],[0,0.75,0],[0,0.5,0],[0,0.25,0]];shape=mxgraph.bpmn.task2;whiteSpace=wrap;rectStyle=rounded;size=10;html=1;container=1;expand=0;collapsible=0;taskMarker=service;fillColor=#dae8fc;strokeColor=#6c8ebf;" vertex="1" parent="oLSMftNWuv7o7DR6i7uo-1">
          <mxGeometry x="480" y="10" width="120" height="80" as="geometry" />
        </mxCell>
        <mxCell id="oLSMftNWuv7o7DR6i7uo-44" value="" style="edgeStyle=orthogonalEdgeStyle;rounded=0;orthogonalLoop=1;jettySize=auto;html=1;" edge="1" parent="oLSMftNWuv7o7DR6i7uo-1" source="oLSMftNWuv7o7DR6i7uo-30" target="oLSMftNWuv7o7DR6i7uo-43">
          <mxGeometry relative="1" as="geometry" />
        </mxCell>
        <mxCell id="oLSMftNWuv7o7DR6i7uo-30" value="Tamanho das legendas" style="points=[[0.25,0,0],[0.5,0,0],[0.75,0,0],[1,0.25,0],[1,0.5,0],[1,0.75,0],[0.75,1,0],[0.5,1,0],[0.25,1,0],[0,0.75,0],[0,0.5,0],[0,0.25,0]];shape=mxgraph.bpmn.task2;whiteSpace=wrap;rectStyle=rounded;size=10;html=1;container=1;expand=0;collapsible=0;bpmnShapeType=call;taskMarker=manual;fillColor=#dae8fc;strokeColor=#6c8ebf;" vertex="1" parent="oLSMftNWuv7o7DR6i7uo-1">
          <mxGeometry x="480" y="130" width="120" height="80" as="geometry" />
        </mxCell>
        <mxCell id="oLSMftNWuv7o7DR6i7uo-31" value="Menu de fases" style="points=[[0.25,0,0],[0.5,0,0],[0.75,0,0],[1,0.25,0],[1,0.5,0],[1,0.75,0],[0.75,1,0],[0.5,1,0],[0.25,1,0],[0,0.75,0],[0,0.5,0],[0,0.25,0]];shape=mxgraph.bpmn.task2;whiteSpace=wrap;rectStyle=rounded;size=10;html=1;container=1;expand=0;collapsible=0;taskMarker=abstract;bpmnShapeType=subprocess;isLoopSub=1;outline=eventNonint;symbol=parallelMultiple;fillColor=#dae8fc;strokeColor=#6c8ebf;" vertex="1" parent="oLSMftNWuv7o7DR6i7uo-1">
          <mxGeometry x="110" y="90" width="100" height="60" as="geometry" />
        </mxCell>
        <mxCell id="oLSMftNWuv7o7DR6i7uo-39" style="edgeStyle=orthogonalEdgeStyle;rounded=0;orthogonalLoop=1;jettySize=auto;html=1;entryX=0.5;entryY=0;entryDx=0;entryDy=0;" edge="1" parent="oLSMftNWuv7o7DR6i7uo-1" source="oLSMftNWuv7o7DR6i7uo-32" target="oLSMftNWuv7o7DR6i7uo-21">
          <mxGeometry relative="1" as="geometry" />
        </mxCell>
        <mxCell id="oLSMftNWuv7o7DR6i7uo-32" value="1° Fase" style="points=[[0.25,0,0],[0.5,0,0],[0.75,0,0],[1,0.25,0],[1,0.5,0],[1,0.75,0],[0.75,1,0],[0.5,1,0],[0.25,1,0],[0,0.75,0],[0,0.5,0],[0,0.25,0]];shape=mxgraph.bpmn.task2;whiteSpace=wrap;rectStyle=rounded;size=10;html=1;container=1;expand=0;collapsible=0;taskMarker=abstract;isLoopMultiSeq=1;fillColor=#dae8fc;strokeColor=#6c8ebf;" vertex="1" parent="oLSMftNWuv7o7DR6i7uo-1">
          <mxGeometry x="83" y="300" width="50" height="50" as="geometry" />
        </mxCell>
        <mxCell id="oLSMftNWuv7o7DR6i7uo-38" style="edgeStyle=orthogonalEdgeStyle;rounded=0;orthogonalLoop=1;jettySize=auto;html=1;entryX=0.5;entryY=0;entryDx=0;entryDy=0;" edge="1" parent="oLSMftNWuv7o7DR6i7uo-1" source="oLSMftNWuv7o7DR6i7uo-34" target="oLSMftNWuv7o7DR6i7uo-21">
          <mxGeometry relative="1" as="geometry" />
        </mxCell>
        <mxCell id="oLSMftNWuv7o7DR6i7uo-34" value="2°Fase" style="points=[[0.25,0,0],[0.5,0,0],[0.75,0,0],[1,0.25,0],[1,0.5,0],[1,0.75,0],[0.75,1,0],[0.5,1,0],[0.25,1,0],[0,0.75,0],[0,0.5,0],[0,0.25,0]];shape=mxgraph.bpmn.task2;whiteSpace=wrap;rectStyle=rounded;size=10;html=1;container=1;expand=0;collapsible=0;taskMarker=abstract;isLoopMultiSeq=1;fillColor=#dae8fc;strokeColor=#6c8ebf;" vertex="1" parent="oLSMftNWuv7o7DR6i7uo-1">
          <mxGeometry x="192.5" y="300" width="50" height="50" as="geometry" />
        </mxCell>
        <mxCell id="oLSMftNWuv7o7DR6i7uo-37" style="edgeStyle=orthogonalEdgeStyle;rounded=0;orthogonalLoop=1;jettySize=auto;html=1;entryX=0.5;entryY=0;entryDx=0;entryDy=0;entryPerimeter=0;" edge="1" parent="oLSMftNWuv7o7DR6i7uo-1" source="oLSMftNWuv7o7DR6i7uo-15" target="oLSMftNWuv7o7DR6i7uo-34">
          <mxGeometry relative="1" as="geometry" />
        </mxCell>
        <mxCell id="oLSMftNWuv7o7DR6i7uo-40" value="Pedir ajuda" style="points=[[0.25,0,0],[0.5,0,0],[0.75,0,0],[1,0.25,0],[1,0.5,0],[1,0.75,0],[0.75,1,0],[0.5,1,0],[0.25,1,0],[0,0.75,0],[0,0.5,0],[0,0.25,0]];shape=mxgraph.bpmn.task2;whiteSpace=wrap;rectStyle=rounded;size=10;html=1;container=1;expand=0;collapsible=0;taskMarker=receive;fillColor=#dae8fc;strokeColor=#6c8ebf;" vertex="1" parent="oLSMftNWuv7o7DR6i7uo-1">
          <mxGeometry x="480" y="250" width="120" height="80" as="geometry" />
        </mxCell>
        <mxCell id="oLSMftNWuv7o7DR6i7uo-41" style="edgeStyle=orthogonalEdgeStyle;rounded=0;orthogonalLoop=1;jettySize=auto;html=1;entryX=0.5;entryY=0;entryDx=0;entryDy=0;entryPerimeter=0;" edge="1" parent="oLSMftNWuv7o7DR6i7uo-1" source="oLSMftNWuv7o7DR6i7uo-29" target="oLSMftNWuv7o7DR6i7uo-30">
          <mxGeometry relative="1" as="geometry" />
        </mxCell>
        <mxCell id="oLSMftNWuv7o7DR6i7uo-42" style="edgeStyle=orthogonalEdgeStyle;rounded=0;orthogonalLoop=1;jettySize=auto;html=1;entryX=0.5;entryY=0;entryDx=0;entryDy=0;entryPerimeter=0;" edge="1" parent="oLSMftNWuv7o7DR6i7uo-1" source="oLSMftNWuv7o7DR6i7uo-30" target="oLSMftNWuv7o7DR6i7uo-40">
          <mxGeometry relative="1" as="geometry" />
        </mxCell>
        <mxCell id="oLSMftNWuv7o7DR6i7uo-61" value="" style="edgeStyle=orthogonalEdgeStyle;rounded=0;orthogonalLoop=1;jettySize=auto;html=1;entryX=0.5;entryY=0;entryDx=0;entryDy=0;" edge="1" parent="oLSMftNWuv7o7DR6i7uo-1" source="oLSMftNWuv7o7DR6i7uo-43" target="oLSMftNWuv7o7DR6i7uo-62">
          <mxGeometry relative="1" as="geometry">
            <mxPoint x="850" y="230" as="targetPoint" />
          </mxGeometry>
        </mxCell>
        <mxCell id="oLSMftNWuv7o7DR6i7uo-43" value="" style="rhombus;whiteSpace=wrap;html=1;fillColor=#fff2cc;strokeColor=#d6b656;" vertex="1" parent="oLSMftNWuv7o7DR6i7uo-1">
          <mxGeometry x="700" y="130" width="80" height="80" as="geometry" />
        </mxCell>
        <mxCell id="oLSMftNWuv7o7DR6i7uo-47" style="edgeStyle=orthogonalEdgeStyle;rounded=0;orthogonalLoop=1;jettySize=auto;html=1;" edge="1" parent="oLSMftNWuv7o7DR6i7uo-1" source="oLSMftNWuv7o7DR6i7uo-45">
          <mxGeometry relative="1" as="geometry">
            <mxPoint x="730" y="310" as="targetPoint" />
          </mxGeometry>
        </mxCell>
        <mxCell id="oLSMftNWuv7o7DR6i7uo-45" value="Deseja mudar o tamanho da legenda ?" style="text;html=1;align=center;verticalAlign=middle;whiteSpace=wrap;rounded=0;" vertex="1" parent="oLSMftNWuv7o7DR6i7uo-1">
          <mxGeometry x="660" y="210" width="140" height="30" as="geometry" />
        </mxCell>
        <mxCell id="oLSMftNWuv7o7DR6i7uo-48" value="Sim" style="text;html=1;align=center;verticalAlign=middle;whiteSpace=wrap;rounded=0;" vertex="1" parent="oLSMftNWuv7o7DR6i7uo-1">
          <mxGeometry x="780" y="140" width="60" height="30" as="geometry" />
        </mxCell>
        <mxCell id="oLSMftNWuv7o7DR6i7uo-49" value="Já iniciou a 1° fase?" style="text;html=1;align=center;verticalAlign=middle;whiteSpace=wrap;rounded=0;" vertex="1" parent="oLSMftNWuv7o7DR6i7uo-1">
          <mxGeometry x="118" y="480" width="102" height="30" as="geometry" />
        </mxCell>
        <mxCell id="oLSMftNWuv7o7DR6i7uo-50" value="Sim" style="text;html=1;align=center;verticalAlign=middle;whiteSpace=wrap;rounded=0;" vertex="1" parent="oLSMftNWuv7o7DR6i7uo-1">
          <mxGeometry x="73" y="420" width="60" height="30" as="geometry" />
        </mxCell>
        <mxCell id="oLSMftNWuv7o7DR6i7uo-51" value="Não" style="text;html=1;align=center;verticalAlign=middle;whiteSpace=wrap;rounded=0;rotation=-90;" vertex="1" parent="oLSMftNWuv7o7DR6i7uo-1">
          <mxGeometry x="690" y="250" width="60" height="30" as="geometry" />
        </mxCell>
        <mxCell id="oLSMftNWuv7o7DR6i7uo-54" value="" style="points=[[0.145,0.145,0],[0.5,0,0],[0.855,0.145,0],[1,0.5,0],[0.855,0.855,0],[0.5,1,0],[0.145,0.855,0],[0,0.5,0]];shape=mxgraph.bpmn.event;html=1;verticalLabelPosition=bottom;labelBackgroundColor=#ffffff;verticalAlign=top;align=center;perimeter=ellipsePerimeter;outlineConnect=0;aspect=fixed;outline=throwing;symbol=general;fillColor=#f8cecc;strokeColor=#b85450;" vertex="1" parent="oLSMftNWuv7o7DR6i7uo-1">
          <mxGeometry x="701" y="311" width="50" height="50" as="geometry" />
        </mxCell>
        <mxCell id="oLSMftNWuv7o7DR6i7uo-55" value="Fim" style="text;html=1;strokeColor=none;fillColor=none;align=center;verticalAlign=middle;whiteSpace=wrap;rounded=0;" vertex="1" parent="oLSMftNWuv7o7DR6i7uo-1">
          <mxGeometry x="686" y="360" width="80" height="30" as="geometry" />
        </mxCell>
        <mxCell id="oLSMftNWuv7o7DR6i7uo-58" value="Iniciar jogo" style="points=[[0.25,0,0],[0.5,0,0],[0.75,0,0],[1,0.25,0],[1,0.5,0],[1,0.75,0],[0.75,1,0],[0.5,1,0],[0.25,1,0],[0,0.75,0],[0,0.5,0],[0,0.25,0]];shape=mxgraph.bpmn.task2;whiteSpace=wrap;rectStyle=rounded;size=10;html=1;container=1;expand=0;collapsible=0;taskMarker=abstract;fillColor=#dae8fc;strokeColor=#6c8ebf;" vertex="1" parent="oLSMftNWuv7o7DR6i7uo-1">
          <mxGeometry x="113" y="12.5" width="100" height="45" as="geometry" />
        </mxCell>
        <mxCell id="oLSMftNWuv7o7DR6i7uo-59" style="edgeStyle=orthogonalEdgeStyle;rounded=0;orthogonalLoop=1;jettySize=auto;html=1;exitX=0.5;exitY=1;exitDx=0;exitDy=0;exitPerimeter=0;entryX=0.5;entryY=0;entryDx=0;entryDy=0;entryPerimeter=0;" edge="1" parent="oLSMftNWuv7o7DR6i7uo-1" source="oLSMftNWuv7o7DR6i7uo-58" target="oLSMftNWuv7o7DR6i7uo-31">
          <mxGeometry relative="1" as="geometry" />
        </mxCell>
        <mxCell id="oLSMftNWuv7o7DR6i7uo-65" style="edgeStyle=orthogonalEdgeStyle;rounded=0;orthogonalLoop=1;jettySize=auto;html=1;exitX=0.5;exitY=1;exitDx=0;exitDy=0;entryX=0.5;entryY=0;entryDx=0;entryDy=0;" edge="1" parent="oLSMftNWuv7o7DR6i7uo-1" source="oLSMftNWuv7o7DR6i7uo-62" target="oLSMftNWuv7o7DR6i7uo-64">
          <mxGeometry relative="1" as="geometry" />
        </mxCell>
        <mxCell id="oLSMftNWuv7o7DR6i7uo-62" value="" style="rhombus;whiteSpace=wrap;html=1;fillColor=#fff2cc;strokeColor=#d6b656;" vertex="1" parent="oLSMftNWuv7o7DR6i7uo-1">
          <mxGeometry x="810" y="231" width="80" height="80" as="geometry" />
        </mxCell>
        <mxCell id="oLSMftNWuv7o7DR6i7uo-64" value="Qual tamanho da legenda , você deseja?" style="text;html=1;align=center;verticalAlign=middle;whiteSpace=wrap;rounded=0;" vertex="1" parent="oLSMftNWuv7o7DR6i7uo-1">
          <mxGeometry x="766" y="311" width="170" height="30" as="geometry" />
        </mxCell>
        <mxCell id="oLSMftNWuv7o7DR6i7uo-72" value="" style="edgeStyle=orthogonalEdgeStyle;rounded=0;orthogonalLoop=1;jettySize=auto;html=1;" edge="1" parent="oLSMftNWuv7o7DR6i7uo-1" source="oLSMftNWuv7o7DR6i7uo-68" target="oLSMftNWuv7o7DR6i7uo-71">
          <mxGeometry relative="1" as="geometry" />
        </mxCell>
        <mxCell id="oLSMftNWuv7o7DR6i7uo-68" value="Pequena" style="points=[[0.25,0,0],[0.5,0,0],[0.75,0,0],[1,0.25,0],[1,0.5,0],[1,0.75,0],[0.75,1,0],[0.5,1,0],[0.25,1,0],[0,0.75,0],[0,0.5,0],[0,0.25,0]];shape=mxgraph.bpmn.task2;whiteSpace=wrap;rectStyle=rounded;size=10;html=1;container=1;expand=0;collapsible=0;taskMarker=abstract;fillColor=#dae8fc;strokeColor=#6c8ebf;" vertex="1" parent="oLSMftNWuv7o7DR6i7uo-1">
          <mxGeometry x="960" y="230" width="120" height="80" as="geometry" />
        </mxCell>
        <mxCell id="oLSMftNWuv7o7DR6i7uo-66" style="edgeStyle=orthogonalEdgeStyle;rounded=0;orthogonalLoop=1;jettySize=auto;html=1;entryX=0;entryY=0.5;entryDx=0;entryDy=0;entryPerimeter=0;" edge="1" parent="oLSMftNWuv7o7DR6i7uo-1" source="oLSMftNWuv7o7DR6i7uo-62" target="oLSMftNWuv7o7DR6i7uo-68">
          <mxGeometry relative="1" as="geometry">
            <mxPoint x="910" y="271.090909090909" as="targetPoint" />
          </mxGeometry>
        </mxCell>
        <mxCell id="oLSMftNWuv7o7DR6i7uo-74" value="" style="edgeStyle=orthogonalEdgeStyle;rounded=0;orthogonalLoop=1;jettySize=auto;html=1;" edge="1" parent="oLSMftNWuv7o7DR6i7uo-1" source="oLSMftNWuv7o7DR6i7uo-71" target="oLSMftNWuv7o7DR6i7uo-73">
          <mxGeometry relative="1" as="geometry" />
        </mxCell>
        <mxCell id="oLSMftNWuv7o7DR6i7uo-71" value="Média" style="points=[[0.25,0,0],[0.5,0,0],[0.75,0,0],[1,0.25,0],[1,0.5,0],[1,0.75,0],[0.75,1,0],[0.5,1,0],[0.25,1,0],[0,0.75,0],[0,0.5,0],[0,0.25,0]];shape=mxgraph.bpmn.task2;whiteSpace=wrap;rectStyle=rounded;size=10;html=1;container=1;expand=0;collapsible=0;taskMarker=abstract;fillColor=#dae8fc;strokeColor=#6c8ebf;" vertex="1" parent="oLSMftNWuv7o7DR6i7uo-1">
          <mxGeometry x="1160" y="230" width="120" height="80" as="geometry" />
        </mxCell>
        <mxCell id="oLSMftNWuv7o7DR6i7uo-76" value="" style="edgeStyle=orthogonalEdgeStyle;rounded=0;orthogonalLoop=1;jettySize=auto;html=1;" edge="1" parent="oLSMftNWuv7o7DR6i7uo-1" source="oLSMftNWuv7o7DR6i7uo-73" target="oLSMftNWuv7o7DR6i7uo-75">
          <mxGeometry relative="1" as="geometry" />
        </mxCell>
        <mxCell id="oLSMftNWuv7o7DR6i7uo-73" value="Grande" style="points=[[0.25,0,0],[0.5,0,0],[0.75,0,0],[1,0.25,0],[1,0.5,0],[1,0.75,0],[0.75,1,0],[0.5,1,0],[0.25,1,0],[0,0.75,0],[0,0.5,0],[0,0.25,0]];shape=mxgraph.bpmn.task2;whiteSpace=wrap;rectStyle=rounded;size=10;html=1;container=1;expand=0;collapsible=0;taskMarker=abstract;fillColor=#dae8fc;strokeColor=#6c8ebf;" vertex="1" parent="oLSMftNWuv7o7DR6i7uo-1">
          <mxGeometry x="1360" y="230" width="120" height="80" as="geometry" />
        </mxCell>
        <mxCell id="oLSMftNWuv7o7DR6i7uo-82" style="edgeStyle=orthogonalEdgeStyle;rounded=0;orthogonalLoop=1;jettySize=auto;html=1;" edge="1" parent="oLSMftNWuv7o7DR6i7uo-1" source="oLSMftNWuv7o7DR6i7uo-75">
          <mxGeometry relative="1" as="geometry">
            <mxPoint x="1560" y="430" as="targetPoint" />
          </mxGeometry>
        </mxCell>
        <mxCell id="oLSMftNWuv7o7DR6i7uo-75" value="" style="rhombus;whiteSpace=wrap;html=1;fillColor=#fff2cc;strokeColor=#d6b656;" vertex="1" parent="oLSMftNWuv7o7DR6i7uo-1">
          <mxGeometry x="1380" y="390" width="80" height="80" as="geometry" />
        </mxCell>
        <mxCell id="oLSMftNWuv7o7DR6i7uo-77" value="Ja escolheu o tamnho desejado?" style="text;html=1;strokeColor=none;fillColor=none;align=center;verticalAlign=middle;whiteSpace=wrap;rounded=0;" vertex="1" parent="oLSMftNWuv7o7DR6i7uo-1">
          <mxGeometry x="1360" y="470" width="120" height="30" as="geometry" />
        </mxCell>
        <mxCell id="oLSMftNWuv7o7DR6i7uo-80" value="" style="points=[[0.145,0.145,0],[0.5,0,0],[0.855,0.145,0],[1,0.5,0],[0.855,0.855,0],[0.5,1,0],[0.145,0.855,0],[0,0.5,0]];shape=mxgraph.bpmn.event;html=1;verticalLabelPosition=bottom;labelBackgroundColor=#ffffff;verticalAlign=top;align=center;perimeter=ellipsePerimeter;outlineConnect=0;aspect=fixed;outline=throwing;symbol=general;fillColor=#f8cecc;strokeColor=#b85450;" vertex="1" parent="oLSMftNWuv7o7DR6i7uo-1">
          <mxGeometry x="1560" y="407.5" width="50" height="50" as="geometry" />
        </mxCell>
        <mxCell id="oLSMftNWuv7o7DR6i7uo-81" value="Fim" style="text;html=1;align=center;verticalAlign=middle;whiteSpace=wrap;rounded=0;" vertex="1" parent="oLSMftNWuv7o7DR6i7uo-1">
          <mxGeometry x="1555" y="450" width="60" height="30" as="geometry" />
        </mxCell>
        <mxCell id="oLSMftNWuv7o7DR6i7uo-78" style="edgeStyle=orthogonalEdgeStyle;rounded=0;orthogonalLoop=1;jettySize=auto;html=1;exitX=0;exitY=0.5;exitDx=0;exitDy=0;entryX=0.5;entryY=1;entryDx=0;entryDy=0;" edge="1" parent="oLSMftNWuv7o7DR6i7uo-1" source="oLSMftNWuv7o7DR6i7uo-75" target="oLSMftNWuv7o7DR6i7uo-64">
          <mxGeometry relative="1" as="geometry">
            <mxPoint x="1320" y="430.7272727272725" as="targetPoint" />
          </mxGeometry>
        </mxCell>
        <mxCell id="oLSMftNWuv7o7DR6i7uo-83" value="Não" style="text;html=1;align=center;verticalAlign=middle;whiteSpace=wrap;rounded=0;" vertex="1" parent="oLSMftNWuv7o7DR6i7uo-1">
          <mxGeometry x="1190" y="403" width="60" height="30" as="geometry" />
        </mxCell>
        <mxCell id="oLSMftNWuv7o7DR6i7uo-84" value="Sim" style="text;html=1;align=center;verticalAlign=middle;whiteSpace=wrap;rounded=0;" vertex="1" parent="oLSMftNWuv7o7DR6i7uo-1">
          <mxGeometry x="1470" y="403" width="60" height="30" as="geometry" />
        </mxCell>
      </root>
    </mxGraphModel>
  </diagram>
  <diagram id="fF41WtFpQ5DfVYZX2DKi" name="Página-2">
    <mxGraphModel dx="786" dy="474" grid="1" gridSize="10" guides="1" tooltips="1" connect="1" arrows="1" fold="1" page="1" pageScale="1" pageWidth="827" pageHeight="1169" math="0" shadow="0">
      <root>
        <mxCell id="0" />
        <mxCell id="1" parent="0" />
      </root>
    </mxGraphModel>
  </diagram>
</mxfile>
